<?xml version="1.0" standalone="no"?>
<!DOCTYPE svg PUBLIC "-//W3C//DTD SVG 20010904//EN"
 "http://www.w3.org/TR/2001/REC-SVG-20010904/DTD/svg10.dtd">
<svg version="1.0" xmlns="http://www.w3.org/2000/svg"
 width="298.000000pt" height="298.000000pt" viewBox="0 0 298.000000 298.000000"
 preserveAspectRatio="xMidYMid meet">

<g transform="translate(0.000000,298.000000) scale(0.100000,-0.100000)"
fill="#000000" stroke="none">
<path d="M1360 2944 c-63 -9 -244 -44 -280 -56 -170 -54 -329 -128 -447 -209
-43 -30 -126 -102 -184 -160 -245 -247 -376 -540 -419 -938 -31 -283 72 -658
249 -914 173 -248 452 -450 771 -556 155 -52 161 -53 232 -62 37 -5 101 -13
141 -18 150 -19 392 12 587 76 25 8 87 34 139 59 313 148 543 404 696 775 56
136 74 207 102 413 15 109 15 128 0 245 -24 186 -43 279 -83 392 -146 421
-415 702 -822 860 -43 16 -95 34 -117 40 -182 46 -215 51 -370 54 -88 2 -176
1 -195 -1z m435 -82 c111 -26 178 -49 279 -95 91 -42 240 -134 311 -192 27
-22 58 -47 68 -55 65 -52 278 -332 264 -346 -3 -3 -15 0 -27 6 -12 6 -28 9
-36 6 -8 -3 -21 6 -31 22 -34 53 -106 142 -116 142 -6 0 -19 -7 -29 -16 -14
-14 -20 -14 -33 -4 -16 13 -21 50 -7 50 4 0 13 -5 20 -12 9 -9 15 -9 23 -1 17
17 -39 56 -71 48 -34 -9 -36 -13 -21 -37 11 -18 11 -23 -3 -33 -24 -18 -20
-29 16 -43 l32 -12 -23 -24 c-33 -35 -9 -43 33 -11 19 14 37 33 40 41 15 38
71 -12 64 -58 -2 -16 -11 -24 -33 -28 -32 -6 -32 -6 -19 -83 8 -47 18 -53 52
-31 56 38 73 44 93 34 26 -15 24 -26 -11 -47 -38 -22 -38 -34 0 -55 29 -16 40
-38 21 -38 -12 0 -41 -29 -41 -40 0 -5 12 -3 28 5 15 8 40 17 55 20 26 5 28 8
21 38 -3 18 -17 53 -30 79 -29 57 -30 73 -6 63 9 -4 27 -7 38 -7 17 1 28 -12
52 -66 46 -104 91 -254 108 -364 22 -137 15 -405 -14 -533 -110 -486 -472
-881 -945 -1030 -237 -75 -531 -85 -752 -25 -134 36 -151 42 -260 94 -297 141
-540 375 -674 651 -96 197 -129 330 -138 551 -6 165 6 297 39 423 23 89 89
261 100 261 4 0 14 -12 22 -28 17 -32 11 -77 -15 -111 -24 -31 -24 -56 1 -81
23 -23 50 -26 50 -6 0 21 20 30 33 17 23 -23 40 -13 33 20 -6 30 -5 31 24 26
54 -11 42 13 -19 40 -34 14 -61 32 -61 40 0 17 0 17 55 -7 52 -22 75 -25 75
-9 0 6 -27 22 -60 36 -64 28 -73 43 -38 67 20 14 24 14 40 -1 14 -13 21 -14
30 -5 7 7 8 12 3 12 -5 0 0 7 11 15 18 14 18 16 2 26 -20 11 -24 29 -7 29 6 0
30 -14 55 -31 36 -27 46 -30 59 -19 22 19 18 65 -9 97 l-24 28 -31 -18 c-29
-17 -31 -17 -31 -1 0 26 60 84 87 84 18 0 23 -6 23 -24 0 -35 16 -41 46 -17
15 12 40 21 55 21 41 0 37 22 -11 69 -22 21 -40 43 -40 47 0 12 76 74 89 74
14 0 13 -10 -4 -40 -8 -14 -14 -33 -15 -43 0 -17 6 -18 68 -12 37 4 71 11 77
16 5 6 -10 28 -40 59 -43 43 -47 52 -35 64 21 20 67 28 76 14 5 -8 2 -9 -9 -5
-26 10 -20 -10 7 -28 28 -19 58 -9 76 25 15 28 30 25 30 -5 0 -26 14 -33 25
-14 13 21 -5 59 -31 65 -23 6 -24 8 -10 16 22 13 60 -12 81 -52 9 -17 20 -30
25 -30 16 0 12 13 -20 63 -16 26 -27 54 -24 62 4 8 2 15 -4 15 -6 0 -18 3 -27
7 -14 5 -16 2 -10 -15 5 -18 2 -22 -14 -22 -11 0 -31 -12 -45 -26 -24 -26 -24
-26 -31 -5 -7 24 -23 28 -31 7 -3 -8 -20 -20 -37 -27 -99 -40 -357 -287 -373
-357 -4 -15 -11 -31 -18 -37 -6 -5 -24 -29 -40 -52 -16 -24 -35 -43 -42 -43
-18 0 -17 20 1 44 18 24 20 45 3 28 -14 -14 -28 -16 -28 -2 0 18 119 185 187
262 166 189 426 350 669 414 145 38 189 43 399 40 150 -3 209 -8 280 -24z
m-953 -324 c-6 -6 -15 -8 -19 -4 -4 4 -1 11 7 16 8 5 17 7 19 4 3 -2 -1 -10
-7 -16z m-102 -83 c0 -8 -7 -15 -15 -15 -16 0 -20 12 -8 23 11 12 23 8 23 -8z
m-150 -82 c23 -20 27 -43 7 -43 -20 0 -57 30 -57 46 0 19 25 18 50 -3z m-88
-168 c6 -14 8 -28 4 -32 -10 -10 -50 33 -42 46 11 18 26 13 38 -14z m2098 -14
c7 -13 7 -22 0 -26 -15 -9 -30 4 -30 26 0 25 16 25 30 0z m-44 -32 c3 -6 1
-16 -5 -22 -9 -9 -14 -8 -21 3 -9 15 -4 30 10 30 5 0 12 -5 16 -11z m129 -110
c4 -11 5 -22 3 -25 -6 -6 -48 26 -48 37 0 18 39 9 45 -12z m-2375 -90 c0 -12
-29 -38 -42 -39 -10 0 -10 34 -1 43 11 11 43 8 43 -4z"/>
<path d="M1767 2806 c-14 -13 -32 -26 -39 -29 -10 -3 -9 -8 5 -19 16 -12 17
-19 6 -67 -8 -37 -8 -56 0 -64 13 -13 31 30 31 74 0 16 8 36 19 45 11 10 16
24 14 35 -4 15 0 19 23 19 16 0 38 -7 48 -15 18 -14 36 -12 36 3 0 14 -58 42
-88 42 -17 0 -40 -10 -55 -24z"/>
<path d="M1345 2810 c-3 -5 -3 -21 1 -35 5 -19 1 -30 -17 -44 -28 -23 -25 -27
49 -67 45 -23 55 -26 63 -13 5 7 7 23 5 34 -19 84 -19 95 1 95 25 0 47 -68 38
-112 -6 -23 -4 -29 6 -26 24 8 34 55 20 94 -10 27 -10 38 -1 49 19 23 4 32
-47 29 -35 -2 -51 -8 -65 -26 l-18 -23 0 28 c0 27 -22 38 -35 17z m60 -90 c11
-17 -5 -32 -21 -19 -7 6 -11 15 -8 20 7 12 21 11 29 -1z"/>
<path d="M1210 2774 c-91 -20 -95 -21 -80 -39 7 -8 18 -15 26 -15 19 0 28 -20
15 -33 -6 -6 -11 -20 -11 -30 0 -17 5 -19 41 -13 31 5 46 3 60 -10 30 -27 38
-9 22 52 -15 61 -12 84 12 84 8 0 15 5 15 10 0 13 -20 12 -100 -6z m23 -31 c2
-5 7 -20 11 -35 5 -21 3 -28 -8 -28 -15 0 -48 55 -38 64 8 8 30 7 35 -1z"/>
<path d="M1830 2752 c0 -4 5 -13 10 -18 8 -8 6 -15 -5 -24 -21 -17 -19 -30 4
-30 11 0 21 -5 23 -12 7 -21 37 -1 31 21 -4 15 -1 21 11 21 20 0 20 -22 1 -75
-19 -51 -19 -57 2 -53 11 2 23 23 34 58 12 42 21 56 38 58 11 2 21 7 21 13 0
11 -46 23 -59 15 -5 -4 -12 -2 -16 4 -3 5 -17 10 -30 10 -13 0 -27 5 -30 10
-7 12 -35 13 -35 2z"/>
<path d="M2020 2669 c-23 -18 -24 -20 -7 -33 21 -16 22 -36 2 -36 -23 0 -18
-24 8 -35 12 -6 23 -20 25 -32 4 -29 28 -30 43 -2 11 22 11 21 34 -7 12 -15
20 -35 18 -45 -11 -40 19 -26 51 24 19 30 43 58 53 61 16 7 16 9 -7 26 -33 26
-54 26 -47 0 3 -10 -1 -27 -9 -37 -12 -17 -14 -17 -31 7 -10 14 -18 43 -18 65
0 33 -3 40 -20 40 -17 0 -20 -8 -23 -48 -3 -39 -6 -48 -20 -45 -14 3 -17 13
-15 55 1 29 -1 54 -5 57 -4 2 -19 -4 -32 -15z"/>
<path d="M1398 2535 c-4 -4 -24 -8 -45 -10 -71 -6 -168 -27 -248 -55 -156 -55
-223 -98 -353 -224 -186 -180 -284 -384 -321 -666 -19 -143 35 -418 111 -565
142 -275 468 -518 748 -555 143 -19 199 -21 310 -11 165 16 351 78 471 158 23
16 53 35 66 44 47 32 183 171 227 233 131 182 190 365 195 597 5 222 -65 439
-197 614 -69 92 -91 116 -152 167 -25 20 -64 52 -88 72 -88 72 -232 140 -376
177 -82 21 -334 38 -348 24z m180 -64 c-2 -9 -15 -17 -31 -19 -23 -3 -27 -8
-27 -37 0 -26 5 -34 24 -39 28 -7 42 -35 21 -41 -8 -3 -22 -7 -30 -10 -10 -3
-15 -18 -15 -49 0 -46 -11 -65 -26 -43 -5 6 -9 66 -9 132 l0 120 30 5 c42 8
67 1 63 -19z m-152 -46 c19 -88 28 -192 18 -197 -5 -3 -21 -8 -36 -12 -36 -8
-41 4 -64 138 -17 100 -17 109 -2 120 9 7 29 12 44 11 26 0 29 -4 40 -60z
m336 23 c11 -19 10 -32 -6 -54 -14 -18 -15 -18 -25 9 -13 33 -29 35 -36 4 -4
-15 2 -37 15 -60 17 -29 21 -46 15 -74 -10 -57 -22 -73 -53 -73 -32 0 -52 16
-52 42 0 24 17 23 30 -2 13 -24 27 -18 40 15 7 19 3 35 -16 70 -26 46 -27 60
-4 121 9 24 14 26 47 21 20 -4 40 -12 45 -19z m-538 -20 c28 -25 89 -189 79
-214 -7 -20 -74 -47 -86 -35 -5 5 -26 53 -47 107 -21 55 -41 107 -45 116 -5
13 1 21 27 32 44 19 43 19 72 -6z m656 -13 c41 -21 41 -50 0 -42 -23 5 -32 2
-40 -13 -15 -27 -12 -51 7 -65 25 -18 10 -47 -21 -39 -19 4 -27 1 -36 -17 -11
-19 -10 -24 5 -35 19 -14 14 -44 -8 -44 -7 0 -21 6 -30 13 -16 11 -15 19 18
112 40 114 55 145 67 145 5 0 22 -7 38 -15z m-781 -60 c12 -25 21 -58 21 -74
0 -16 6 -31 15 -35 25 -9 17 -27 -9 -20 -35 8 -41 -11 -16 -52 12 -19 20 -38
16 -41 -8 -9 -34 16 -42 39 -3 11 -23 48 -44 82 -58 94 -60 110 -10 133 40 19
47 16 69 -32z m916 -9 c24 -19 27 -27 18 -37 -10 -10 -18 -10 -38 -1 -22 10
-27 9 -38 -11 -8 -12 -28 -44 -45 -72 -29 -45 -30 -51 -15 -67 17 -19 11 -48
-10 -48 -8 0 -22 9 -31 19 -17 18 -16 21 4 63 33 65 92 162 104 170 16 11 18
10 51 -16z m-1005 -125 c38 -54 70 -103 70 -110 0 -21 -27 -11 -38 14 -11 25
-42 35 -42 14 0 -6 9 -24 21 -40 35 -50 -2 -33 -41 18 -19 25 -54 67 -77 93
-24 27 -43 53 -43 58 0 13 50 51 67 52 7 0 44 -44 83 -99z m1115 49 c25 -27
14 -56 -46 -125 -77 -88 -95 -100 -125 -85 -33 18 -30 38 16 95 118 147 123
151 155 115z m-1216 -135 c93 -94 94 -95 77 -120 -9 -14 -21 -25 -27 -25 -6 0
-43 28 -82 63 -40 34 -85 72 -100 83 -15 12 -27 25 -27 30 0 9 51 64 60 64 3
0 48 -43 99 -95z m1301 54 c0 -7 -16 -31 -35 -55 -19 -23 -35 -45 -35 -48 0
-15 26 -3 62 29 34 32 58 38 58 16 0 -4 -30 -30 -68 -58 -37 -29 -80 -66 -96
-82 -53 -55 -64 -32 -16 29 34 43 26 61 -13 30 -14 -11 -31 -20 -39 -20 -16 0
152 169 170 169 6 1 12 -4 12 -10z m-480 -59 c142 -55 227 -123 330 -265 172
-238 170 -524 -6 -771 -120 -168 -278 -258 -492 -279 -85 -8 -225 9 -296 37
-276 108 -453 361 -445 638 7 253 102 434 300 570 119 82 218 109 394 105 120
-2 136 -5 215 -35z m-960 -59 c23 -22 52 -42 65 -45 33 -8 85 -54 85 -74 -1
-21 -34 -62 -50 -62 -6 0 -30 13 -53 29 -23 15 -66 43 -96 62 -30 19 -59 37
-64 40 -21 15 28 89 59 89 7 0 32 -18 54 -39z m1548 -1 c12 -16 22 -36 22 -43
0 -15 -35 -44 -120 -103 -83 -57 -89 -59 -116 -33 -13 12 -24 28 -24 34 0 6
32 36 71 66 40 30 84 66 98 80 34 35 43 35 69 -1z m82 -142 c33 -55 28 -62
-84 -117 -57 -28 -111 -51 -120 -51 -25 0 -19 29 9 42 24 11 32 28 19 41 -4 3
-17 -1 -30 -10 -27 -17 -65 -10 -46 9 12 12 211 116 225 117 4 1 16 -14 27
-31z m-1721 -83 c94 -51 106 -53 121 -25 13 24 40 27 40 5 0 -21 -28 -75 -39
-75 -5 0 -59 25 -120 55 -68 34 -111 60 -111 70 0 23 18 18 109 -30z m1792
-74 c6 -22 9 -47 5 -56 -9 -23 -93 -58 -122 -51 -19 5 -34 -1 -62 -24 -20 -16
-45 -30 -55 -30 -31 0 -15 32 26 54 43 23 52 52 12 42 -14 -3 -36 -9 -50 -12
-36 -9 -34 23 3 38 47 20 206 76 219 77 7 0 17 -17 24 -38z m-1787 -19 c110
-38 137 -60 66 -54 -31 3 -40 0 -40 -12 0 -9 12 -18 28 -22 49 -10 56 -14 46
-24 -10 -10 -43 -5 -193 25 -80 16 -93 26 -84 65 17 72 26 73 177 22z m-116
-139 c2 -7 -8 -17 -21 -22 -34 -13 -44 -32 -24 -46 22 -16 197 -29 210 -16 7
7 7 19 -1 36 -9 19 -19 25 -42 25 -18 0 -33 -6 -36 -15 -8 -19 -33 -19 -40 0
-8 20 13 45 37 45 10 0 41 -5 69 -11 50 -11 50 -11 50 -49 0 -61 -20 -74 -104
-66 -39 4 -93 8 -119 9 -29 2 -52 8 -58 17 -10 16 -7 79 5 99 10 15 68 10 74
-6z m1932 -2 c0 -11 -12 -23 -30 -31 -44 -18 -46 -29 -6 -45 20 -9 36 -22 36
-30 0 -20 -15 -19 -80 6 -42 16 -69 20 -112 16 -39 -3 -60 -1 -68 7 -15 20 -1
26 56 26 40 0 67 8 116 34 74 40 88 43 88 17z m-1740 -175 c0 -9 -18 -20 -47
-28 -68 -19 -71 -42 -4 -36 28 3 54 2 56 -2 11 -18 -26 -28 -120 -35 -55 -4
-107 -11 -116 -16 -11 -6 -21 -4 -28 5 -14 16 -5 24 62 55 26 13 47 27 47 32
0 5 -27 9 -60 9 -33 0 -60 4 -60 9 0 16 20 18 148 20 102 1 122 -1 122 -13z
m1734 -26 c4 -5 5 -27 1 -49 -8 -49 -35 -57 -35 -11 0 28 -3 30 -34 30 -30 0
-35 -3 -38 -27 -4 -40 -32 -36 -36 5 -3 29 -6 32 -38 32 -28 0 -36 -5 -44 -25
-6 -16 -17 -25 -30 -25 -19 0 -20 4 -14 38 4 20 9 41 11 45 6 10 245 -2 257
-13z m-1699 -122 c4 -13 9 -31 11 -40 6 -20 -32 -39 -146 -69 -41 -12 -82 -23
-92 -26 -12 -4 -22 8 -37 43 -14 30 -18 51 -12 57 15 15 40 1 51 -28 18 -46
63 -26 58 26 -4 46 25 52 47 10 8 -17 20 -31 26 -31 25 0 50 23 49 43 -3 34
-1 37 19 37 12 0 22 -9 26 -22z m1543 -20 c42 -10 89 -22 105 -25 31 -6 33
-17 11 -61 -19 -38 -40 -40 -134 -13 -101 29 -120 40 -120 70 0 14 4 31 8 37
9 13 34 23 45 17 4 -3 43 -14 85 -25z m-1495 -107 c9 -16 17 -34 17 -40 0 -6
-37 -29 -81 -51 -45 -22 -87 -44 -93 -48 -6 -4 -23 -13 -38 -20 -25 -10 -28
-9 -47 22 -12 18 -21 41 -21 49 0 20 49 47 84 47 14 0 34 9 45 21 17 19 80 47
106 49 6 0 18 -13 28 -29z m1458 -37 c76 -38 108 -59 101 -66 -7 -7 -37 3 -95
32 -46 23 -93 40 -103 38 -16 -3 -16 -5 -4 -17 8 -7 51 -32 94 -54 76 -40 105
-67 73 -67 -15 0 -128 61 -157 84 -8 6 -27 18 -42 26 -16 7 -28 17 -28 22 0
14 31 58 41 58 5 0 59 -25 120 -56z m-125 -76 c157 -114 156 -113 125 -157
-27 -37 -37 -38 -76 -7 -22 18 -27 27 -19 36 9 9 17 8 33 -1 16 -11 23 -11 33
-1 10 10 4 20 -32 51 -52 45 -107 77 -117 68 -3 -4 0 -18 7 -32 7 -14 11 -28
7 -31 -7 -7 -67 33 -67 45 0 13 40 61 51 61 5 0 30 -15 55 -32z m-1243 -35 c4
-3 -28 -39 -71 -78 -74 -70 -76 -73 -63 -98 13 -25 9 -47 -10 -47 -14 0 -98
92 -99 107 0 21 21 26 39 9 10 -9 21 -16 25 -16 4 0 42 29 84 65 77 66 84 70
95 58z m1205 -113 c45 -43 82 -85 82 -94 0 -14 -45 -56 -60 -56 -10 0 -180
165 -180 174 0 10 38 7 45 -4 9 -15 35 -12 35 4 0 7 -7 19 -15 26 -14 12 -12
30 3 30 4 0 44 -36 90 -80z m-1078 5 c19 -21 22 -30 14 -43 -6 -9 -18 -18 -27
-20 -14 -3 -16 2 -11 27 5 24 3 31 -9 31 -26 0 -39 -37 -32 -89 6 -42 4 -50
-24 -81 -17 -19 -31 -38 -31 -42 0 -16 -36 -6 -65 17 -29 24 -29 26 -15 52 22
38 42 42 38 7 -2 -23 1 -30 19 -32 27 -4 37 25 29 81 -6 37 -3 47 25 80 36 44
57 46 89 12z m905 -79 c8 -17 30 -51 49 -76 28 -38 38 -45 65 -42 44 3 39 -10
-20 -47 -61 -37 -64 -38 -43 -6 16 24 14 27 -44 117 -34 50 -58 96 -56 100 8
13 33 -11 49 -46z m-794 18 c24 -12 29 -19 23 -37 -10 -32 -103 -215 -112
-221 -13 -8 -88 30 -95 47 -9 23 17 41 42 28 30 -16 40 -14 53 14 10 22 8 29
-11 49 -30 32 -19 48 24 40 28 -5 35 -2 45 16 10 18 8 25 -9 44 -12 12 -21 25
-21 29 0 12 30 8 61 -9z m686 -31 c4 -10 18 -36 33 -58 46 -69 73 -132 66
-152 -7 -16 -10 -15 -32 12 -13 17 -24 35 -24 40 0 6 -17 45 -38 88 -21 42
-36 80 -33 82 9 10 22 4 28 -12z m-585 -19 c3 -3 0 -26 -8 -51 -23 -75 0 -83
36 -12 11 21 28 39 37 39 14 0 15 -11 9 -92 -3 -50 -6 -108 -6 -130 0 -27 -4
-38 -15 -38 -12 0 -15 14 -15 69 0 39 -4 72 -9 75 -5 3 -23 -24 -40 -61 -24
-51 -34 -64 -43 -55 -9 9 -9 23 -2 50 10 41 7 82 -7 82 -5 0 -23 -28 -40 -61
-22 -45 -33 -59 -42 -50 -8 8 -5 21 11 48 12 21 41 73 64 116 38 70 55 87 70
71z m550 -68 c45 -110 49 -133 30 -156 -9 -11 -30 -22 -47 -23 -27 -2 -33 3
-58 53 -15 30 -33 81 -39 113 -12 55 -11 60 7 73 11 8 33 14 49 12 26 -3 33
-11 58 -72z m-245 22 c4 -7 15 -33 24 -58 19 -55 55 -71 45 -21 -3 17 -9 45
-12 61 -3 17 -1 30 4 30 9 0 30 -76 37 -135 2 -11 6 -42 10 -69 10 -66 -11
-59 -48 17 -15 31 -32 57 -37 57 -13 0 -13 -36 0 -80 6 -20 6 -38 1 -43 -16
-16 -30 29 -35 109 -2 44 -7 94 -11 112 -8 33 6 45 22 20z m-103 -94 c20 -8
21 -48 1 -64 -21 -17 -55 -3 -55 24 0 21 17 46 31 46 4 0 14 -3 23 -6z"/>
<path d="M1367 2433 c-9 -15 27 -166 41 -171 15 -4 14 11 -2 102 -11 64 -26
90 -39 69z"/>
<path d="M1176 2392 c-8 -14 51 -167 65 -167 16 0 14 22 -7 85 -28 82 -44 104
-58 82z"/>
<path d="M1035 2350 c-7 -11 19 -65 36 -75 21 -14 27 10 12 48 -15 36 -35 48
-48 27z"/>
<path d="M920 2254 c0 -16 23 -44 35 -44 20 0 19 13 -3 33 -19 17 -32 22 -32
11z"/>
<path d="M2029 2183 c-23 -32 -46 -59 -51 -61 -14 -6 -9 -32 6 -32 15 0 116
121 116 139 0 27 -31 7 -71 -46z"/>
<path d="M810 2161 c0 -10 75 -83 110 -108 12 -8 24 -12 28 -8 7 7 -116 125
-130 125 -5 0 -8 -4 -8 -9z"/>
<path d="M1587 2114 c-4 -4 -4 -17 -1 -30 5 -19 1 -26 -20 -34 -29 -11 -34
-25 -11 -34 11 -4 14 -13 9 -32 l-7 -27 70 5 c67 5 70 4 65 -15 -5 -19 -2 -20
61 -14 53 5 67 3 67 -7 0 -8 -9 -16 -21 -19 -54 -14 18 -52 79 -42 25 5 32 2
32 -10 0 -9 -9 -15 -25 -15 -14 0 -25 -6 -25 -13 0 -19 33 -47 55 -47 17 0 17
1 0 20 -18 20 -15 24 18 21 13 -2 17 5 17 29 0 44 24 33 28 -12 2 -28 -2 -40
-20 -52 -12 -9 -19 -17 -15 -17 4 -1 12 -3 17 -4 6 -1 15 -3 20 -4 6 0 10 -5
10 -11 0 -5 -13 -7 -29 -4 -16 3 -31 2 -34 -3 -11 -17 33 -74 68 -89 42 -17
46 -37 8 -32 -18 2 -28 -2 -27 -9 1 -7 2 -22 3 -33 0 -10 19 -36 41 -56 22
-21 40 -41 40 -46 0 -13 -27 -9 -40 7 -7 8 -16 15 -20 15 -14 0 -20 -31 -9
-51 8 -16 13 -18 25 -8 11 9 18 8 30 -2 14 -11 19 -9 34 11 14 19 22 22 30 14
9 -9 4 -20 -18 -45 -30 -33 -30 -34 -51 -15 -16 15 -21 16 -21 5 0 -8 5 -20
11 -26 6 -6 9 -17 7 -23 -3 -9 -8 -8 -20 4 -23 23 -37 20 -44 -9 -4 -16 1 -40
14 -65 22 -45 19 -50 -15 -19 l-22 22 -11 -27 c-13 -35 -13 -73 0 -81 13 -8
13 -35 0 -35 -6 0 -15 11 -20 25 -20 52 -47 21 -62 -69 -9 -53 -15 -66 -29
-66 -15 0 -17 6 -12 35 3 20 1 35 -4 35 -17 0 -51 -44 -68 -87 -19 -47 -38
-49 -28 -3 8 41 -16 40 -54 -1 -56 -63 -63 -69 -76 -69 -13 0 -59 -19 -100
-41 -12 -7 -31 -2 -70 17 -28 15 -63 30 -76 33 -15 5 -29 20 -39 46 -19 47
-62 88 -78 74 -7 -5 -9 -19 -6 -31 3 -15 1 -19 -9 -16 -8 3 -16 18 -19 33 -6
33 -24 36 -25 4 0 -17 -7 -22 -36 -25 -40 -3 -76 16 -65 35 5 7 13 8 25 1 18
-9 41 4 41 23 0 6 8 16 18 23 16 13 16 15 -2 29 -21 16 -38 11 -30 -9 7 -18
-16 -32 -26 -16 -4 7 -6 29 -3 50 6 42 -19 100 -42 100 -8 0 -15 -5 -15 -11 0
-15 -64 -39 -88 -32 -32 8 -28 -19 9 -62 18 -21 46 -39 70 -45 46 -13 48 -17
14 -30 -14 -5 -25 -14 -25 -19 0 -21 75 -61 112 -61 36 0 49 -12 28 -25 -18
-11 -11 -23 26 -45 29 -18 44 -21 82 -16 69 9 182 -37 182 -74 0 -28 49 -19
63 11 8 14 31 31 61 42 48 17 50 17 93 -3 32 -15 54 -19 79 -14 40 7 43 16 12
37 -32 21 -16 31 25 18 40 -13 90 1 117 34 13 15 12 19 -5 31 -10 8 -17 14
-14 15 2 0 19 2 38 5 54 7 111 48 111 81 0 3 -11 3 -25 0 -20 -3 -25 -1 -23
12 2 9 15 17 30 19 34 4 78 45 78 72 0 17 -4 19 -27 14 -31 -7 -27 -2 30 40
29 21 37 34 37 58 0 27 -2 30 -25 24 -33 -8 -32 4 5 39 30 29 47 82 36 110 -5
13 -10 14 -27 5 -30 -17 -34 -5 -10 28 24 35 27 70 7 97 -12 17 -16 17 -30 6
-24 -20 -32 -5 -18 32 16 44 15 86 -3 117 l-15 25 -6 -22 c-3 -13 -13 -23 -22
-23 -12 0 -14 9 -9 43 5 38 2 48 -25 81 -29 35 -33 37 -44 21 -16 -21 -34 -11
-34 18 0 30 -36 87 -55 87 -10 0 -15 -10 -15 -31 0 -27 -2 -30 -15 -19 -8 7
-15 22 -15 34 0 25 -34 60 -67 70 -20 7 -21 4 -16 -28 7 -46 -8 -46 -30 -1 -9
19 -31 44 -49 55 -36 22 -41 23 -51 14z m72 -60 c29 -37 26 -59 -10 -74 -42
-18 -61 1 -25 25 25 17 26 19 11 41 -28 43 -8 49 24 8z m116 -45 c18 -33 8
-59 -22 -59 -13 0 -13 3 -3 15 10 12 10 21 1 41 -13 30 -14 34 -1 34 5 0 17
-14 25 -31z m108 -69 c9 -43 -1 -60 -34 -60 -33 0 -38 14 -10 29 13 7 17 18
14 36 -4 18 -1 25 10 25 8 0 17 -13 20 -30z m167 -213 c0 -13 -6 -32 -14 -43
-14 -17 -17 -18 -42 -4 -41 22 -44 45 -6 37 25 -5 32 -3 37 13 9 27 25 25 25
-3z m50 -127 c0 -21 -31 -70 -44 -70 -16 0 -58 44 -50 53 4 4 13 2 21 -5 11
-9 19 -7 36 10 23 24 37 28 37 12z m-74 -275 c4 -10 14 -13 30 -9 16 4 24 2
24 -6 0 -14 -29 -39 -46 -40 -11 0 -34 41 -34 60 0 16 20 12 26 -5z m-966
-135 c0 -34 -3 -40 -20 -40 -27 0 -70 29 -70 46 0 16 16 19 25 4 11 -18 35
-11 35 10 0 11 7 20 15 20 11 0 15 -11 15 -40z m916 25 c4 -8 17 -15 31 -15
29 0 27 -24 -3 -28 -25 -3 -40 8 -48 36 -8 25 11 32 20 7z m-66 -99 c7 -19 14
-22 34 -19 21 4 25 2 20 -10 -7 -20 -38 -30 -64 -22 -25 8 -28 75 -3 75 2 0 8
-11 13 -24z m-112 -93 c-3 -25 0 -28 26 -25 20 3 27 0 24 -10 -3 -7 -21 -14
-41 -16 -43 -4 -56 15 -39 54 15 32 33 31 30 -3z m-527 -10 c15 -41 5 -55 -38
-51 -40 3 -48 21 -13 26 14 2 20 11 20 28 0 32 18 31 31 -3z m412 -43 c-3 -12
1 -22 11 -26 9 -3 16 -10 16 -15 0 -14 -33 -10 -53 5 -18 14 -18 16 -2 40 19
29 36 27 28 -4z"/>
<path d="M1238 2057 c-20 -19 -40 -46 -43 -60 -8 -32 -25 -36 -25 -7 0 30 -24
24 -59 -15 -29 -34 -35 -50 -32 -86 1 -9 -5 -22 -13 -29 -13 -10 -17 -8 -26
14 -13 35 -24 33 -50 -11 -18 -31 -21 -48 -17 -90 6 -57 -7 -80 -23 -39 -11
30 -28 34 -36 9 -3 -10 -11 -28 -17 -41 -9 -20 -7 -33 17 -78 30 -57 29 -79
-2 -51 -28 26 -32 21 -32 -37 0 -44 5 -60 26 -85 33 -39 28 -60 -8 -32 -33 26
-41 15 -29 -41 16 -69 103 -130 138 -96 20 20 27 86 14 122 -11 28 -12 28 -31
11 -19 -17 -20 -17 -26 0 -5 12 -1 24 13 35 29 23 51 86 35 102 -9 9 -15 9
-24 0 -15 -15 -28 -15 -28 0 0 7 20 30 46 52 32 30 46 49 47 71 2 27 -1 30
-25 27 -41 -4 -34 4 26 33 50 23 66 41 66 70 0 6 -10 10 -22 10 -12 0 -23 6
-25 13 -3 8 9 12 42 12 53 0 115 25 115 46 0 23 -47 17 -53 -6 -6 -24 -58 -28
-77 -5 -9 11 -8 22 7 52 27 54 45 56 37 2 -6 -38 -5 -42 10 -36 10 4 20 7 22
7 2 0 4 9 4 21 0 13 5 19 13 16 83 -31 84 -31 121 -13 35 17 47 41 25 48 -9 3
-9 9 0 25 17 33 14 43 -14 43 -20 0 -25 5 -25 25 0 34 -19 31 -62 -8z m32 -17
c0 -6 -7 -24 -15 -39 -14 -29 -14 -29 21 -36 39 -7 42 -28 5 -33 -35 -5 -73
25 -65 51 14 47 54 89 54 57z m40 -35 c0 -8 -7 -15 -15 -15 -16 0 -20 12 -8
23 11 12 23 8 23 -8z m-290 -184 c0 -36 13 -46 39 -31 29 15 37 -6 9 -24 -44
-27 -66 -29 -73 -6 -9 27 2 90 15 90 6 0 10 -13 10 -29z m-80 -129 c0 -5 6
-17 14 -27 14 -19 15 -19 35 -1 15 14 25 16 32 9 7 -7 1 -20 -21 -42 -17 -17
-36 -31 -41 -31 -12 0 -39 55 -39 80 0 11 5 20 10 20 6 0 10 -4 10 -8z m-13
-178 c4 -11 13 -13 34 -9 36 8 37 -4 3 -36 l-26 -24 -19 24 c-20 25 -26 61 -9
61 6 0 13 -7 17 -16z m0 -156 c21 -19 27 -21 45 -9 16 10 22 10 28 1 9 -14 2
-48 -11 -56 -16 -10 -99 56 -99 78 0 14 13 9 37 -14z"/>
<path d="M1513 1813 c-14 -37 -35 -41 -62 -12 -25 27 -51 19 -51 -16 0 -28
-26 -34 -59 -13 -28 17 -55 -6 -38 -33 9 -15 8 -22 -6 -36 -15 -15 -20 -16
-39 -4 -29 18 -43 -5 -23 -36 26 -39 19 -43 -69 -43 -51 0 -88 -4 -92 -11 -10
-17 -4 -232 8 -246 7 -9 37 -13 89 -13 44 0 79 -3 79 -7 0 -3 -8 -15 -17 -25
-15 -17 -15 -20 -1 -34 13 -13 19 -14 37 -3 18 12 24 11 43 -9 17 -17 20 -24
10 -34 -18 -18 -14 -36 10 -43 16 -6 26 -1 39 16 17 23 18 23 38 5 12 -11 21
-27 21 -38 0 -26 46 -25 53 2 7 26 41 26 66 -1 23 -25 51 -19 51 9 0 11 7 26
16 33 14 11 18 11 29 -5 22 -30 50 -16 50 24 0 35 0 35 41 32 51 -3 66 20 34
50 -31 29 -16 38 58 38 66 0 119 17 115 36 -1 6 -4 59 -6 118 -3 59 -8 110
-12 114 -4 4 -42 6 -84 4 -61 -2 -81 1 -91 13 -11 13 -10 19 5 35 18 19 18 22
2 38 -15 14 -21 15 -38 4 -27 -17 -49 0 -49 38 0 37 -29 48 -50 20 -10 -14
-22 -19 -33 -14 -16 6 -19 11 -21 44 -1 23 -45 25 -53 3z m107 -108 c47 -24
87 -61 77 -71 -10 -11 -397 -14 -397 -3 0 5 15 25 33 45 58 64 191 77 287 29z
m-75 -125 c0 -10 -13 -17 -35 -20 -19 -3 -36 -11 -36 -17 -4 -33 -7 -36 -13
-13 -6 23 -13 25 -66 28 -33 2 -66 8 -74 15 -12 10 -5 13 35 17 27 3 81 5 119
5 56 0 70 -3 70 -15z m360 1 c0 -12 -26 -15 -132 -18 -86 -3 -133 -1 -138 6
-16 26 10 31 138 29 107 -2 132 -6 132 -17z m-665 -12 c0 -17 -4 -20 -22 -15
-13 3 -47 6 -75 6 -40 0 -53 4 -53 15 0 12 15 15 75 15 70 0 75 -1 75 -21z
m360 1 c0 -5 -4 -10 -10 -10 -5 0 -10 5 -10 10 0 6 5 10 10 10 6 0 10 -4 10
-10z m-358 -74 c3 -26 7 -29 47 -32 24 -2 49 0 55 5 7 6 27 6 54 0 47 -10 62
-6 62 17 0 20 15 17 31 -6 12 -17 19 -18 57 -10 23 6 53 8 66 4 17 -4 27 0 34
11 14 26 47 15 47 -15 l0 -25 -205 -7 c-209 -8 -355 -11 -377 -9 -7 0 -13 14
-13 31 0 26 4 30 26 30 15 0 32 -7 39 -16 8 -11 19 -14 33 -10 17 6 22 15 22
44 0 42 17 33 22 -12z m123 24 c3 -5 -1 -10 -9 -10 -9 0 -16 5 -16 10 0 6 4
10 9 10 6 0 13 -4 16 -10z m45 0 c0 -5 -5 -10 -11 -10 -5 0 -7 5 -4 10 3 6 8
10 11 10 2 0 4 -4 4 -10z m-100 -20 c0 -5 -4 -10 -9 -10 -6 0 -13 5 -16 10 -3
6 1 10 9 10 9 0 16 -4 16 -10z m544 -15 c11 -8 28 -13 38 -9 23 7 25 -21 2
-30 -26 -10 -162 -7 -169 4 -4 6 -1 17 5 25 9 11 17 12 37 2 21 -9 26 -8 34 6
12 21 28 21 53 2z m44 -77 c-3 -8 -35 -15 -89 -19 -136 -10 -699 -11 -699 -1
0 9 388 27 658 30 103 2 133 -1 130 -10z m-198 -62 c0 -17 -55 -59 -104 -80
-79 -33 -202 -11 -263 46 -48 45 -37 48 172 48 159 0 195 -3 195 -14z"/>
<path d="M706 2051 c-8 -12 31 -44 44 -36 8 5 6 13 -6 26 -19 21 -30 24 -38
10z"/>
<path d="M810 1972 c0 -12 34 -42 48 -42 19 0 14 28 -7 40 -24 12 -41 13 -41
2z"/>
<path d="M2233 2012 c-17 -15 -46 -36 -67 -47 -20 -11 -36 -27 -36 -37 0 -23
8 -23 45 2 76 49 110 77 113 93 5 26 -22 21 -55 -11z"/>
<path d="M2299 1881 c-13 -11 -21 -23 -17 -27 10 -9 80 18 86 34 6 19 -43 14
-69 -7z"/>
<path d="M2393 1750 c-23 -9 -29 -21 -17 -33 10 -9 54 15 54 30 0 15 -6 15
-37 3z"/>
<path d="M560 1726 c0 -16 21 -26 56 -26 34 0 30 16 -7 29 -42 14 -49 14 -49
-3z"/>
<path d="M2236 1252 c-10 -17 20 -32 90 -47 86 -18 94 -18 94 -1 0 9 -25 20
-72 31 -40 9 -80 19 -90 21 -9 3 -19 1 -22 -4z"/>
<path d="M768 1134 c-34 -18 -36 -34 -5 -34 30 0 62 24 53 38 -9 15 -15 15
-48 -4z"/>
<path d="M644 1076 c-13 -10 -16 -18 -9 -25 12 -12 56 7 63 27 5 17 -30 15
-54 -2z"/>
<path d="M2090 867 c0 -14 52 -57 70 -57 17 0 11 15 -18 43 -30 29 -52 35 -52
14z"/>
<path d="M1740 748 c0 -40 47 -153 64 -156 23 -5 20 23 -9 104 -14 38 -25 70
-25 71 0 2 -7 3 -15 3 -9 0 -15 -9 -15 -22z"/>
<path d="M185 1548 c9 -29 9 -57 0 -87 -7 -22 -6 -23 17 -18 17 5 30 2 38 -8
17 -21 30 -19 30 5 0 11 9 25 20 32 11 7 20 17 20 23 0 6 -9 16 -20 23 -11 7
-20 21 -20 32 0 21 -24 28 -35 10 -4 -7 -12 -7 -25 0 -28 15 -33 12 -25 -12z"/>
<path d="M2710 1526 c0 -13 -7 -26 -15 -30 -20 -7 -19 -36 0 -36 9 0 20 -12
26 -26 9 -25 10 -26 29 -9 11 10 26 14 38 10 26 -8 37 9 17 25 -18 15 -19 34
-3 60 16 26 4 36 -27 22 -15 -7 -27 -8 -30 -2 -12 19 -35 10 -35 -14z"/>
<path d="M310 1175 c-63 -31 -74 -46 -59 -79 9 -20 9 -29 -1 -41 -25 -30 3
-38 61 -16 65 25 81 26 77 5 -2 -9 -25 -25 -53 -36 -59 -23 -73 -34 -59 -47 5
-6 31 -1 68 14 33 13 63 22 68 19 15 -10 8 -32 -12 -37 -26 -7 -26 -27 0 -34
12 -3 20 -12 18 -21 -5 -28 -28 -24 -45 7 -23 39 -43 40 -43 2 0 -16 -3 -43
-6 -60 -5 -24 -3 -31 9 -31 9 0 19 9 22 21 5 15 12 19 28 15 12 -3 30 -6 40
-6 23 0 22 -22 -3 -38 -23 -14 -26 -44 -6 -61 8 -7 12 -21 9 -31 -3 -11 0 -20
6 -20 10 0 63 32 107 65 10 7 19 5 30 -7 19 -19 12 -36 -22 -48 -14 -6 -27
-17 -30 -25 -7 -17 14 -48 26 -40 4 2 15 -4 25 -15 17 -19 17 -21 0 -40 -14
-16 -16 -23 -7 -32 9 -9 23 -1 60 35 26 26 52 47 58 47 15 0 55 -45 47 -53 -3
-4 -14 -7 -24 -7 -48 0 -66 -71 -26 -107 12 -11 27 -29 34 -39 12 -19 13 -19
27 1 84 113 77 107 97 89 25 -22 24 -45 -1 -51 -23 -6 -26 -35 -6 -52 11 -9
20 -4 44 26 25 31 33 36 44 25 11 -11 8 -22 -14 -63 -16 -27 -28 -56 -28 -65
0 -28 24 -9 54 44 16 28 38 53 48 55 26 7 22 22 -9 36 -22 10 -78 45 -143 89
-2 1 2 12 9 24 11 17 10 23 -3 36 -14 14 -17 14 -34 -1 -10 -9 -22 -17 -26
-17 -19 0 -179 163 -209 213 -11 18 -22 34 -26 37 -4 3 -15 18 -25 34 -17 27
-17 30 -2 41 12 9 14 21 10 46 -9 46 -31 69 -66 69 -15 0 -28 1 -28 3 -2 19
-50 142 -56 143 -5 1 -29 -8 -54 -21z m55 -60 c0 -30 -50 -44 -73 -21 -16 16
-16 18 3 32 28 21 70 14 70 -11z m121 -130 c4 -14 3 -29 -1 -33 -8 -8 -35 26
-35 45 0 24 29 14 36 -12z m8 -125 c31 -48 31 -48 5 -76 -17 -18 -26 -21 -41
-13 -25 13 -12 32 17 25 19 -5 22 -3 18 13 -3 11 -14 27 -24 37 -19 17 -26 54
-10 54 4 0 20 -18 35 -40z m133 -171 c16 -16 5 -39 -17 -39 -23 0 -32 13 -24
34 7 19 25 21 41 5z m79 -175 c-5 -13 -10 -14 -18 -6 -6 6 -8 18 -4 28 5 13
10 14 18 6 6 -6 8 -18 4 -28z m39 7 c3 -5 1 -12 -5 -16 -5 -3 -10 1 -10 9 0
18 6 21 15 7z"/>
<path d="M2591 1118 c-5 -13 -19 -49 -31 -81 -24 -62 -36 -75 -52 -59 -8 8 -7
16 2 27 20 24 -1 38 -28 19 -25 -17 -23 -44 6 -77 14 -16 14 -20 0 -50 -9 -17
-46 -66 -82 -109 -69 -79 -78 -98 -48 -98 9 0 31 -9 47 -20 38 -25 60 -25 84
-1 11 11 30 21 42 23 39 5 32 25 -20 60 -54 35 -61 48 -36 68 13 10 23 10 55
-5 37 -17 41 -17 65 -1 14 9 25 23 25 31 0 7 10 15 22 17 40 6 30 27 -26 55
-31 15 -56 31 -56 36 0 5 10 31 22 58 30 64 52 66 42 4 -7 -50 12 -85 46 -85
10 0 24 -10 33 -22 l15 -23 15 36 c8 20 20 40 26 43 16 10 14 63 -3 69 -15 6
-36 -13 -55 -50 -15 -29 -27 -29 -42 -2 -9 18 -7 26 17 50 27 28 27 29 8 44
-10 8 -27 15 -37 15 -10 0 -22 11 -27 25 -12 31 -18 31 -29 3z m-31 -218 c0
-5 -7 -10 -15 -10 -8 0 -15 5 -15 10 0 6 7 10 15 10 8 0 15 -4 15 -10z m18
-51 c-2 -6 -8 -10 -13 -10 -5 0 -11 4 -13 10 -2 6 4 11 13 11 9 0 15 -5 13
-11z m-112 -115 c12 -17 12 -23 0 -39 -13 -18 -14 -18 -39 1 -29 21 -33 34
-15 52 17 17 38 11 54 -14z"/>
<path d="M2141 539 c-40 -24 -47 -41 -26 -72 11 -18 13 -27 5 -32 -10 -6 -39
20 -40 36 0 16 -35 18 -56 4 -29 -19 -30 -36 -5 -59 10 -9 21 -30 25 -47 4
-22 15 -34 42 -45 40 -17 76 -12 56 8 -7 7 -12 20 -12 30 0 19 -15 24 -25 8
-8 -13 -35 -13 -35 -1 0 16 31 41 51 41 10 0 28 -9 39 -20 36 -36 55 -17 27
25 -40 59 -49 75 -38 75 6 0 26 -20 43 -45 18 -25 35 -45 40 -45 18 0 6 38
-23 78 -17 23 -28 49 -25 57 9 23 -8 25 -43 4z"/>
<path d="M1690 398 c-22 -36 -25 -54 -11 -63 6 -3 13 -27 17 -53 4 -26 11 -58
16 -71 8 -21 11 -22 23 -10 12 12 12 22 0 68 -15 56 -13 71 10 71 17 0 26 -26
20 -53 -5 -18 3 -27 36 -45 45 -26 57 -24 38 6 -10 16 -8 23 10 41 21 21 22
24 6 48 -14 21 -15 27 -4 34 15 10 49 -23 49 -47 0 -24 23 -64 37 -64 17 0 17
19 -3 77 -16 46 -16 48 5 61 11 8 21 18 21 23 0 13 -81 -1 -107 -18 -24 -16
-43 -10 -43 13 0 10 -13 14 -50 14 -46 0 -52 -3 -70 -32z m80 -7 c0 -9 -24
-21 -41 -21 -5 0 -9 7 -9 15 0 9 9 15 25 15 14 0 25 -4 25 -9z m53 -67 c9 -10
-4 -34 -19 -34 -8 0 -14 9 -14 20 0 19 19 27 33 14z"/>
<path d="M1130 391 c0 -6 5 -20 12 -31 10 -15 9 -22 -6 -39 -27 -30 -14 -49
36 -53 38 -3 43 -6 40 -26 -1 -18 2 -23 15 -20 12 2 20 18 26 48 11 55 22 69
48 63 30 -8 40 -35 27 -71 -10 -27 -9 -34 7 -51 10 -12 30 -21 45 -21 19 0 29
-6 33 -19 4 -16 12 -18 58 -13 30 2 55 5 56 6 0 0 3 41 4 91 l3 90 -49 -4
c-28 -1 -52 -5 -55 -7 -2 -3 -7 -26 -10 -51 -5 -49 -25 -71 -55 -59 -17 6 -16
8 4 30 22 23 22 25 4 35 -17 10 -17 12 7 30 29 23 23 33 -22 37 -35 3 -167 29
-205 40 -14 4 -23 2 -23 -5z m95 -66 c0 -30 -39 -27 -43 3 -3 20 0 23 20 20
15 -2 23 -10 23 -23z m265 -62 c0 -45 -13 -84 -23 -73 -3 3 -8 31 -12 63 -7
54 -6 57 14 57 18 0 21 -6 21 -47z"/>
</g>
</svg>
